<?xml version="1.0"?>
<svg version="1.1" xmlns="http://www.w3.org/2000/svg" width="400" height="200" style=""><path fill="#7a7ceb" d="M16.07421875,119.55078125q0-0.1171875,0.078125-0.830078125t0.205078125-1.73828125t0.283203125-2.20703125t0.2734375-2.236328125t0.205078125-1.85546875t0.087890625-1.07421875q-0.15625-0.078125-0.380859375-0.224609375t-0.224609375-0.341796875q0-0.2734375,0.263671875-0.439453125t0.458984375-0.244140625q0.078125-0.99609375,0.1953125-2.7734375t0.361328125-3.837890625t0.68359375-4.1796875t1.162109375-3.84765625t1.73828125-2.822265625t2.5-1.09375t2.4609375,0.9375t1.591796875,2.44140625t0.9375,3.33984375t0.48828125,3.65234375t0.205078125,3.3984375t0.078125,2.5390625q0.0390625,0.60546875,0.29296875,0.810546875t0.556640625,0.283203125t0.546875,0.17578125t0.244140625,0.48828125q0,0.44921875-0.546875,0.625t-0.859375,0.21484375q0.1953125,2.44140625,0.537109375,4.8046875t0.908203125,4.765625q0.078125,0.44921875,0.21484375,0.908203125t0.13671875,0.888671875q0,0.3125-0.21484375,0.517578125t-0.556640625,0.322265625t-0.68359375,0.15625t-0.576171875,0.0390625q-0.87890625,0-1.484375-0.33203125t-0.80078125-1.26953125q-0.52734375-2.51953125-1.03515625-5.29296875q-0.4296875-2.40234375-0.4296875-4.66796875q0-0.3515625,0.01953125-0.703125q-1.640625,0-3.30078125,0.078125t-3.18359375,0.5859375q-0.0390625,0.52734375-0.1953125,1.9921875t-0.3515625,3.14453125t-0.400390625,3.212890625t-0.244140625,2.177734375q-0.0390625,0.2734375-0.400390625,0.517578125t-0.78125,0.263671875t-0.7421875-0.263671875t-0.322265625-1.005859375z M19.7265625,107.71484375q1.5234375-0.3515625,3.056640625-0.41015625t3.095703125-0.13671875q-0.078125-0.48828125-0.0390625-1.005859375t0.0390625-1.044921875q0-1.15234375-0.05859375-2.67578125t-0.17578125-3.0859375t-0.302734375-3.076171875t-0.419921875-2.6953125t-0.498046875-1.884765625t-0.576171875-0.703125q-0.60546875,0.0390625-1.142578125,1.044921875t-0.9765625,2.55859375t-0.80078125,3.4765625t-0.60546875,3.759765625t-0.400390625,3.41796875t-0.1953125,2.4609375z M35.7552734375,107.24609375q0-0.80078125,0.283203125-1.34765625t1.201171875-0.546875q0.3515625,0,0.87890625,0.107421875t0.60546875,0.537109375q0.1953125,1.15234375,0.21484375,2.5t0.13671875,2.5390625q0.44921875-0.87890625,1.15234375-1.89453125t1.6015625-1.875t1.953125-1.42578125t2.1484375-0.56640625q0.078125,0,0.29296875,0.05859375t0.400390625,0.166015625t0.224609375,0.244140625t-0.21484375,0.25390625q-0.078125,0.234375-0.33203125,0.283203125t-0.44921875,0.048828125q-0.1171875,0-0.37109375-0.09765625q-1.4453125,0.76171875-2.4609375,2.0703125t-1.66015625,2.900390625t-0.9375,3.359375t-0.29296875,3.447265625q0,0.83984375-0.380859375,1.015625t-1.220703125,0.17578125q-0.44921875,0-0.947265625-0.09765625t-0.693359375-0.625q-0.3515625-1.11328125-0.576171875-2.55859375t-0.341796875-2.978515625t-0.166015625-3.017578125t-0.048828125-2.67578125z M48.834765625,100.3125q0-0.2734375,0.5859375-0.46875t1.328125-0.322265625t1.435546875-0.185546875t0.947265625-0.09765625q0-0.52734375,0.0390625-1.064453125t0.21484375-0.95703125t0.556640625-0.673828125t1.064453125-0.25390625q0.56640625,0,0.859375,0.13671875t0.625,0.56640625q0.078125,0.234375,0.078125,0.44921875l0,0.654296875t-0.0390625,0.673828125q0.72265625-0.078125,1.435546875-0.185546875t1.435546875-0.107421875q0.52734375,0,0.72265625,0.01953125t0.390625,0.46875q0.15625,0.44921875-0.380859375,0.68359375t-1.2890625,0.3515625t-1.494140625,0.17578125t-0.8984375,0.05859375q-0.234375,3.359375-0.478515625,6.66015625t-0.244140625,6.69921875q0,1.5234375,0.09765625,3.14453125t0.546875,3.06640625q0.1171875,0.44921875,0.390625,0.83984375t0.2734375,0.83984375q0,0.2734375-0.21484375,0.4296875t-0.517578125,0.263671875t-0.60546875,0.126953125t-0.498046875,0.01953125q-1.23046875,0-1.875-0.91796875t-0.927734375-2.197265625t-0.302734375-2.626953125t-0.01953125-2.1875q0-1.71875,0.068359375-3.515625t0.166015625-3.5546875t0.2734375-3.4375t0.41015625-3.125q-0.68359375,0.078125-1.337890625,0.17578125t-1.337890625,0.09765625q-0.15625,0-0.419921875-0.01953125t-0.498046875-0.09765625t-0.400390625-0.21484375t-0.166015625-0.390625z M63.7697265625,112.24609375q0-1.796875,0.419921875-3.525390625t0.712890625-3.447265625q0.078125-0.44921875,0.615234375-0.556640625t0.908203125-0.107421875q0.64453125,0,1.03515625,0.1953125q0.15625,0.078125,0.29296875,0.17578125t0.13671875,0.25390625q0,1.6796875-0.400390625,3.28125t-0.400390625,3.3984375q0,0.60546875,0.087890625,1.142578125t0.166015625,1.064453125l0.1171875,0.56640625q0,0.15625,0.01953125,0.2734375t0.05859375,0.2734375q0,0.3515625-0.498046875,0.478515625t-0.869140625,0.126953125q-0.56640625,0-1.044921875-0.224609375t-0.751953125-0.771484375l-0.2734375-0.56640625q-0.234375-0.44921875-0.234375-1.005859375t-0.09765625-1.025390625z M65.0197265625,100.48828125l0-0.37109375q0-0.91796875,0.458984375-1.640625t1.376953125-0.72265625q0.1171875,0,0.224609375,0.01953125t0.224609375,0.01953125q0.234375,0.0390625,0.615234375,0.185546875t0.380859375,0.458984375l0,0.0390625q-0.078125,0.15625-0.09765625,0.322265625t-0.09765625,0.283203125l0.0390625-0.0390625q-0.234375,0.60546875-0.380859375,0.9765625t-0.322265625,0.595703125t-0.439453125,0.322265625t-0.751953125,0.09765625q-0.078125,0-0.2734375-0.01953125t-0.419921875-0.078125t-0.380859375-0.15625t-0.15625-0.29296875z M72.2984375,112.32421875q0-1.40625,0.361328125-2.822265625t1.123046875-2.5390625t1.943359375-1.826171875t2.783203125-0.703125q0.68359375,0,1.50390625,0.166015625t1.513671875,0.52734375t1.171875,0.9375t0.478515625,1.416015625q0,0.52734375-0.2734375,0.703125t-0.72265625,0.17578125l-0.13671875-0.1953125t-0.380859375-0.498046875t-0.517578125-0.64453125t-0.52734375-0.576171875q-0.80078125-0.80078125-1.50390625-0.859375l-0.15625,0q-0.5859375,0-1.09375,0.3515625q-0.56640625,0.4296875-1.005859375,1.2109375t-0.732421875,1.66015625t-0.458984375,1.77734375t-0.166015625,1.484375q0,0.80078125,0.185546875,1.826171875t0.625,1.943359375t1.11328125,1.54296875t1.728515625,0.625q0.95703125,0,1.73828125-0.46875t1.494140625-1.044921875t1.396484375-1.03515625t1.40625-0.458984375q0.3125,0,0.634765625,0.078125t0.322265625,0.41015625l0,0.1171875q-0.3515625,0.91796875-1.19140625,1.62109375t-1.884765625,1.220703125t-2.16796875,0.771484375t-2.001953125,0.25390625q-1.640625,0-2.880859375-0.537109375t-2.060546875-1.474609375t-1.240234375-2.255859375t-0.419921875-2.880859375z M89.3427734375,119.6484375q0-0.56640625,0.048828125-1.19140625t0.087890625-1.171875l0.1171875-2.9296875q0.1953125-3.515625,0.478515625-6.9140625t0.478515625-6.875q0.1171875-1.9140625,0.17578125-3.759765625t0.17578125-3.759765625q-0.078125-0.15625-0.078125-0.21484375q0-0.2734375,0.205078125-0.4296875t0.478515625-0.263671875t0.576171875-0.146484375t0.458984375-0.0390625l0.44921875,0q0.60546875,0.078125,0.87890625,0.380859375t0.3515625,0.72265625t0.0390625,0.8984375t-0.0390625,0.888671875q0,2.83203125-0.13671875,5.771484375t-0.3125,5.8984375t-0.322265625,5.91796875t-0.146484375,5.849609375l0,1.3671875q0,0.91796875-0.517578125,1.2109375t-1.435546875,0.29296875q-0.80078125,0-1.40625-0.3515625t-0.60546875-1.15234375z M98.301171875,113.515625q0-1.3671875,0.302734375-3.22265625t1.025390625-3.515625t1.904296875-2.822265625t2.978515625-1.162109375q1.6796875,0,2.51953125,0.966796875t0.83984375,2.607421875q0,1.07421875-0.400390625,2.353515625t-1.142578125,2.421875t-1.7578125,1.904296875t-2.265625,0.76171875l-0.5078125-0.0390625q0,0.52734375,0.15625,1.416015625t0.458984375,1.767578125t0.78125,1.54296875t1.162109375,0.6640625q0.99609375,0,1.9140625-0.80078125t1.73828125-1.77734375t1.5234375-1.77734375t1.2890625-0.80078125q0.3125,0,0.64453125,0.09765625t0.37109375,0.546875q0,0.2734375-0.146484375,0.44921875t-0.263671875,0.390625q-0.60546875,1.03515625-1.318359375,1.97265625t-1.611328125,1.69921875t-1.962890625,1.201171875t-2.353515625,0.439453125q-1.6796875,0-2.79296875-0.595703125t-1.796875-1.6015625t-0.986328125-2.32421875t-0.302734375-2.763671875z M101.797265625,112.03125l0.546875,0.48828125q0.390625,0.3515625,0.78125,0.15625t0.703125-0.712890625t0.576171875-1.279296875t0.46875-1.5625t0.302734375-1.5625t0.09765625-1.26953125l0-0.6640625t-0.05859375-0.703125t-0.205078125-0.556640625t-0.458984375-0.283203125q-0.09765625-0.01953125-0.17578125-0.01953125q-0.6640625,0-1.1328125,0.83984375q-0.5078125,0.9375-0.8203125,2.275390625t-0.44921875,2.744140625t-0.17578125,2.109375z M122.23359375,119.7265625q0.078125-4.08203125,0.341796875-8.14453125t0.458984375-8.14453125q0.0390625-1.5625,0.0390625-2.841796875t0.126953125-2.216796875t0.46875-1.435546875t1.142578125-0.498046875q0.68359375,0,1.03515625,0.1953125t0.537109375,0.498046875t0.224609375,0.68359375t0.0390625,0.771484375q0,0.56640625,0.0390625,1.123046875t0.0390625,1.123046875q0,4.12109375-0.224609375,8.22265625t-0.224609375,8.26171875q0,0.60546875,0.01953125,1.220703125t0.01953125,1.259765625q0,0.234375-0.21484375,0.390625t-0.537109375,0.263671875t-0.68359375,0.146484375t-0.595703125,0.0390625q-0.2734375,0-0.615234375-0.0390625t-0.6640625-0.166015625t-0.546875-0.302734375t-0.224609375-0.41015625z M123.32734375,93.2421875q0-0.1953125,0.05859375-0.439453125t0.13671875-0.439453125q0.0390625-0.234375,0.1171875-0.80078125t0.283203125-1.103515625t0.56640625-0.95703125t1.025390625-0.419921875l0.37109375,0q0.3125,0.078125,0.634765625,0.1953125t0.322265625,0.56640625q0,0.1953125-0.01953125,0.37109375t-0.05859375,0.390625q-0.15625,1.15234375-0.302734375,1.81640625t-0.341796875,1.005859375t-0.498046875,0.439453125t-0.771484375,0.13671875q-0.15625,0-0.419921875-0.01953125t-0.5078125-0.09765625t-0.419921875-0.244140625t-0.17578125-0.400390625z M130.8892578125,107.822265625q-0.048828125-0.654296875,0.078125-1.201171875t0.5078125-0.888671875t1.220703125-0.341796875q0.1953125,0,0.478515625,0.048828125t0.556640625,0.126953125t0.458984375,0.234375t0.185546875,0.4296875l0,2.20703125q0.76171875-0.87890625,1.66015625-1.259765625t2.05078125-0.380859375q0.87890625,0,1.73828125,0.400390625t1.62109375,1.064453125t1.318359375,1.46484375t0.810546875,1.6015625q0.15625-0.72265625,0.3515625-1.767578125t0.576171875-2.001953125t1.005859375-1.640625t1.66015625-0.68359375q1.11328125,0,1.875,0.80078125t1.240234375,2.080078125t0.72265625,2.861328125t0.361328125,3.125t0.1171875,2.880859375l0,2.099609375q0,0.234375-0.17578125,0.380859375t-0.439453125,0.224609375t-0.546875,0.09765625t-0.439453125,0.01953125q-0.60546875,0-1.103515625-0.185546875t-0.498046875-0.947265625l0-1.7578125t-0.0390625-2.275390625t-0.13671875-2.44140625t-0.25390625-2.216796875t-0.400390625-1.6015625t-0.595703125-0.625q-0.48828125,0-0.703125,0.546875t-0.361328125,1.38671875t-0.224609375,1.77734375t-0.21484375,1.77734375t-0.439453125,1.376953125t-0.830078125,0.537109375q-0.56640625,0-0.99609375-0.537109375t-0.849609375-1.337890625t-0.83984375-1.71875t-0.927734375-1.71875q-0.5078125-0.8203125-1.09375-1.328125q-0.52734375-0.48828125-1.19140625-0.46875l-0.09765625,0q-0.87890625,0.0390625-1.376953125,0.634765625t-0.76171875,1.455078125t-0.322265625,1.845703125t-0.05859375,1.728515625q0,0.703125,0.1171875,1.640625q0.078125,0.625,0.078125,1.19140625q0,0.29296875-0.01953125,0.56640625q-0.05859375,0.8203125-0.439453125,1.376953125t-1.416015625,0.556640625q-0.390625,0-0.9765625-0.078125t-0.78125-0.52734375q-0.44921875-0.80078125-0.68359375-2.021484375t-0.3515625-2.51953125t-0.13671875-2.578125t-0.01953125-2.197265625q0-0.64453125-0.048828125-1.298828125z M155.521484375,112.71484375q0-1.328125,0.361328125-2.55859375t1.083984375-2.197265625t1.806640625-1.54296875t2.509765625-0.576171875q0.87890625,0,1.943359375,0.263671875t2.001953125,0.78125t1.5625,1.318359375t0.625,1.8359375q0,0.48828125-0.166015625,0.7421875t-0.673828125,0.25390625l-0.21484375-0.0390625q0.56640625,1.5234375,0.9765625,3.125t0.80078125,3.203125q0.15625,0.3125,0.234375,0.556640625t0.078125,0.478515625q0,0.3125-0.17578125,0.517578125t-0.458984375,0.302734375t-0.5859375,0.13671875t-0.537109375,0.0390625q-0.83984375,0-1.259765625-0.29296875t-0.60546875-0.80078125t-0.224609375-1.142578125t-0.15625-1.279296875q-0.234375,0.76171875-0.615234375,1.484375t-0.8984375,1.298828125t-1.220703125,0.91796875t-1.58203125,0.341796875q-1.2890625,0-2.16796875-0.7421875t-1.416015625-1.826171875t-0.78125-2.314453125t-0.244140625-2.28515625z M158.294921875,112.44140625q0,0.72265625,0.09765625,1.5234375t0.322265625,1.58203125t0.576171875,1.474609375t0.87890625,1.220703125q0.95703125-1.03515625,1.416015625-2.51953125t0.8203125-2.861328125t0.8203125-2.36328125t1.416015625-0.986328125q0.60546875,0,1.015625,0.21484375q-0.1953125-0.48828125-0.64453125-0.947265625t-1.005859375-0.83984375t-1.15234375-0.625t-1.123046875-0.244140625q-0.15625,0-0.361328125,0.048828125t-0.322265625,0.009765625q-0.80078125,0.234375-1.318359375,0.810546875t-0.83984375,1.357421875t-0.458984375,1.6015625t-0.13671875,1.54296875z M172.4486328125,112.03125q0-1.07421875,0.205078125-2.294921875t0.703125-2.236328125t1.376953125-1.6796875t2.24609375-0.6640625q0.91796875,0,1.77734375,0.302734375t1.62109375,0.830078125q0.234375-0.390625,0.7421875-0.478515625t0.8984375-0.087890625q0.15625,0,0.439453125,0.01953125t0.556640625,0.1171875t0.478515625,0.234375t0.244140625,0.390625q0.15625,1.3671875,0.21484375,2.724609375t0.17578125,2.705078125q0.1953125,2.51953125,0.60546875,4.98046875t0.41015625,4.98046875q0,1.19140625-0.107421875,2.578125t-0.56640625,2.568359375t-1.337890625,1.962890625t-2.44140625,0.78125q-1.40625,0-2.158203125-0.498046875t-1.357421875-1.669921875q0.0390625-0.390625,0.498046875-0.517578125t0.791015625-0.126953125q0.3125,0,0.634765625,0.05859375t0.517578125,0.1953125l0.48828125,0.3125q0.72265625-1.484375,0.87890625-3.2421875t0.15625-3.3984375q0-1.3671875-0.13671875-2.705078125t-0.2734375-2.685546875q-1.3671875,2.48046875-4.16015625,2.48046875q-1.2890625,0-2.099609375-0.546875t-1.25-1.38671875t-0.60546875-1.89453125t-0.166015625-2.109375z M174.8509765625,112.20703125q0,0.48828125,0.0390625,1.259765625t0.205078125,1.513671875t0.478515625,1.279296875t0.87890625,0.537109375q1.07421875,0,1.69921875-0.83984375t0.986328125-2.001953125t0.576171875-2.40234375t0.546875-2.041015625q-0.0390625-0.2734375-0.0390625-0.537109375l0-0.537109375q-0.44921875-0.83984375-1.30859375-1.455078125t-1.77734375-0.830078125q-0.1171875-0.01953125-0.21484375-0.01953125q-0.546875,0-0.8984375,0.64453125q-0.44921875,0.78125-0.703125,1.865234375t-0.361328125,2.138671875t-0.107421875,1.42578125z M189.14140625,113.515625q0-1.3671875,0.302734375-3.22265625t1.025390625-3.515625t1.904296875-2.822265625t2.978515625-1.162109375q1.6796875,0,2.51953125,0.966796875t0.83984375,2.607421875q0,1.07421875-0.400390625,2.353515625t-1.142578125,2.421875t-1.7578125,1.904296875t-2.265625,0.76171875l-0.5078125-0.0390625q0,0.52734375,0.15625,1.416015625t0.458984375,1.767578125t0.78125,1.54296875t1.162109375,0.6640625q0.99609375,0,1.9140625-0.80078125t1.73828125-1.77734375t1.5234375-1.77734375t1.2890625-0.80078125q0.3125,0,0.64453125,0.09765625t0.37109375,0.546875q0,0.2734375-0.146484375,0.44921875t-0.263671875,0.390625q-0.60546875,1.03515625-1.318359375,1.97265625t-1.611328125,1.69921875t-1.962890625,1.201171875t-2.353515625,0.439453125q-1.6796875,0-2.79296875-0.595703125t-1.796875-1.6015625t-0.986328125-2.32421875t-0.302734375-2.763671875z M192.6375,112.03125l0.546875,0.48828125q0.390625,0.3515625,0.78125,0.15625t0.703125-0.712890625t0.576171875-1.279296875t0.46875-1.5625t0.302734375-1.5625t0.09765625-1.26953125l0-0.6640625t-0.05859375-0.703125t-0.205078125-0.556640625t-0.458984375-0.283203125q-0.09765625-0.01953125-0.17578125-0.01953125q-0.6640625,0-1.1328125,0.83984375q-0.5078125,0.9375-0.8203125,2.275390625t-0.44921875,2.744140625t-0.17578125,2.109375z M205.4630859375,107.24609375q0-0.80078125,0.283203125-1.34765625t1.201171875-0.546875q0.3515625,0,0.87890625,0.107421875t0.60546875,0.537109375q0.1953125,1.15234375,0.21484375,2.5t0.13671875,2.5390625q0.44921875-0.87890625,1.15234375-1.89453125t1.6015625-1.875t1.953125-1.42578125t2.1484375-0.56640625q0.078125,0,0.29296875,0.05859375t0.400390625,0.166015625t0.224609375,0.244140625t-0.21484375,0.25390625q-0.078125,0.234375-0.33203125,0.283203125t-0.44921875,0.048828125q-0.1171875,0-0.37109375-0.09765625q-1.4453125,0.76171875-2.4609375,2.0703125t-1.66015625,2.900390625t-0.9375,3.359375t-0.29296875,3.447265625q0,0.83984375-0.380859375,1.015625t-1.220703125,0.17578125q-0.44921875,0-0.947265625-0.09765625t-0.693359375-0.625q-0.3515625-1.11328125-0.576171875-2.55859375t-0.341796875-2.978515625t-0.166015625-3.017578125t-0.048828125-2.67578125z"/><path fill="#060f14" d=""/></svg>
